<svg width="90.000000" height="90.000000" viewBox="0 0 90 90" fill="none" xmlns="http://www.w3.org/2000/svg" xmlns:xlink="http://www.w3.org/1999/xlink">
	<desc>
			Created with Pixso.
	</desc>
	<defs>
		<clipPath id="clip2_286">
			<rect id="IMAGE" width="90.000000" height="90.000000" fill="white" fill-opacity="0"/>
		</clipPath>
	</defs>
	<g clip-path="url(#clip2_286)">
		<path id="Vector" d="M61.26 29.6C55.94 29.4 52.35 32.45 50.46 38.69C51.35 38.28 52.32 38.07 53.3 38.06C55.24 38.06 56.11 39.17 55.88 41.39C55.76 42.73 54.9 44.68 53.3 47.24C51.7 49.8 50.49 51.09 49.68 51.09C47.25 51.09 45.79 39.45 45.29 36.28C44.6 31.86 42.76 29.79 39.78 30.08C37.04 30.34 32.26 35.27 28.51 38.61L30.31 40.97C32.03 39.75 33.03 39.14 33.32 39.14C36.31 39.14 37.75 49.31 40.07 56.88C41.63 61.05 43.5 63.14 45.75 63.14C49.37 63.14 53.78 59.71 59 52.86C64.04 46.3 66.64 41.13 66.82 37.35L66.84 37.34C67.05 32.28 65.21 29.69 61.26 29.6L61.26 29.6Z" fill="#FFFFFF" fill-opacity="1.000000" fill-rule="nonzero"/>
		<path id="Vector" d="M50.46 38.69C51.35 38.28 52.32 38.07 53.3 38.06C55.24 38.06 56.11 39.17 55.88 41.39C55.76 42.73 54.9 44.68 53.3 47.24C51.7 49.8 50.49 51.09 49.68 51.09C47.25 51.09 45.79 39.45 45.29 36.28C44.6 31.86 42.76 29.79 39.78 30.08C37.04 30.34 32.26 35.27 28.51 38.61L30.31 40.97C32.03 39.75 33.03 39.14 33.32 39.14C36.31 39.14 37.75 49.31 40.07 56.88C41.63 61.05 43.5 63.14 45.75 63.14C49.37 63.14 53.78 59.71 59 52.86C64.04 46.3 66.64 41.13 66.82 37.35L66.84 37.34C67.05 32.28 65.21 29.69 61.26 29.6L61.26 29.6C55.94 29.4 52.35 32.45 50.46 38.69Z" stroke="#000000" stroke-opacity="1.000000" stroke-width="2.000000"/>
	</g>
</svg>
