<svg width="90.000000" height="90.000000" viewBox="0 0 90 90" fill="none" xmlns="http://www.w3.org/2000/svg" xmlns:xlink="http://www.w3.org/1999/xlink">
	<desc>
			Created with Pixso.
	</desc>
	<defs>
		<clipPath id="clip2_296">
			<rect id="IMAGE" width="90.000000" height="90.000000" fill="white" fill-opacity="0"/>
		</clipPath>
	</defs>
	<g clip-path="url(#clip2_296)">
		<path id="Vector" d="M40.78 43.57C41.63 43.17 42.39 42.61 43.02 41.92C43.93 40.84 44.38 39.41 44.38 37.64C44.38 35.92 43.93 34.45 43.04 33.21C41.54 31.2 38.99 30.17 35.41 30.12L21.2 30.12L21.2 59.13L34.45 59.13C35.84 59.14 37.24 59.01 38.6 58.74C39.81 58.51 40.94 58.02 41.93 57.29C42.76 56.67 43.47 55.89 44.01 55C44.89 53.62 45.34 52.01 45.32 50.37C45.32 48.71 44.94 47.29 44.18 46.12C43.41 44.96 42.28 44.12 40.78 43.57ZM27.07 35.16L33.46 35.16C34.87 35.16 36.03 35.31 36.94 35.61C38 36.05 38.52 36.94 38.52 38.3C38.52 39.51 38.12 40.36 37.33 40.84C36.53 41.32 35.49 41.56 34.21 41.56L27.07 41.56L27.07 35.16ZM37.19 53.59C36.49 53.93 35.48 54.1 34.2 54.1L27.07 54.1L27.07 46.37L34.31 46.37C35.57 46.38 36.55 46.54 37.25 46.85C38.5 47.42 39.12 48.46 39.12 49.97C39.12 51.75 38.48 52.96 37.19 53.59Z" fill="#FFFFFF" fill-opacity="1.000000" fill-rule="nonzero"/>
		<path id="Vector" d="M43.02 41.92C43.93 40.84 44.38 39.41 44.38 37.64C44.38 35.92 43.93 34.45 43.04 33.21C41.54 31.2 38.99 30.17 35.41 30.12L21.2 30.12L21.2 59.13L34.45 59.13C35.84 59.14 37.24 59.01 38.6 58.74C39.81 58.51 40.94 58.02 41.93 57.29C42.76 56.67 43.47 55.89 44.01 55C44.89 53.62 45.34 52.01 45.32 50.37C45.32 48.71 44.94 47.29 44.18 46.12C43.41 44.96 42.28 44.12 40.78 43.57C41.63 43.17 42.39 42.61 43.02 41.92ZM33.46 35.16C34.87 35.16 36.03 35.31 36.94 35.61C38 36.05 38.52 36.94 38.52 38.3C38.52 39.51 38.12 40.36 37.33 40.84C36.53 41.32 35.49 41.56 34.21 41.56L27.07 41.56L27.07 35.16L33.46 35.16ZM34.2 54.1L27.07 54.1L27.07 46.37L34.31 46.37C35.57 46.38 36.55 46.54 37.25 46.85C38.5 47.42 39.12 48.46 39.12 49.97C39.12 51.75 38.48 52.96 37.19 53.59C36.49 53.93 35.48 54.1 34.2 54.1Z" stroke="#000000" stroke-opacity="1.000000" stroke-width="2.000000"/>
		<path id="Vector" d="M64.22 31.47L51.61 31.47L51.61 35.09L64.22 35.09L64.22 31.47Z" fill="#FFFFFF" fill-opacity="1.000000" fill-rule="nonzero"/>
		<path id="Vector" d="M64.22 31.47L64.22 35.09L51.61 35.09L51.61 31.47L64.22 31.47Z" stroke="#000000" stroke-opacity="1.000000" stroke-width="2.000000"/>
		<path id="Vector" d="M68.6 45.73C68.37 44.13 67.77 42.61 66.86 41.29C65.94 39.9 64.63 38.79 63.1 38.12C61.48 37.42 59.74 37.08 57.98 37.11C54.8 37.11 52.21 38.1 50.21 40.09C48.21 42.07 47.21 44.92 47.22 48.64C47.22 52.61 48.33 55.47 50.54 57.23C52.71 58.97 55.42 59.91 58.2 59.87C61.71 59.87 64.44 58.83 66.39 56.74C67.63 55.43 68.33 54.13 68.5 52.86L62.69 52.86C62.41 53.43 62.01 53.93 61.52 54.34C60.71 54.99 59.66 55.32 58.37 55.32C57.14 55.32 56.1 55.05 55.23 54.51C53.8 53.65 53.05 52.13 52.95 49.99L68.79 49.99C68.81 48.13 68.75 46.71 68.6 45.73ZM53.08 46.28C53.29 44.89 53.79 43.78 54.6 42.96C55.4 42.15 56.53 41.73 57.99 41.73C59.33 41.73 60.45 42.12 61.37 42.89C62.28 43.66 62.78 44.79 62.88 46.28L53.08 46.28Z" fill="#FFFFFF" fill-opacity="1.000000" fill-rule="nonzero"/>
		<path id="Vector" d="M66.86 41.29C65.94 39.9 64.63 38.79 63.1 38.12C61.48 37.42 59.74 37.08 57.98 37.11C54.8 37.11 52.21 38.1 50.21 40.09C48.21 42.07 47.21 44.92 47.22 48.64C47.22 52.61 48.33 55.47 50.54 57.23C52.71 58.97 55.42 59.91 58.2 59.87C61.71 59.87 64.44 58.83 66.39 56.74C67.63 55.43 68.33 54.13 68.5 52.86L62.69 52.86C62.41 53.43 62.01 53.93 61.52 54.34C60.71 54.99 59.66 55.32 58.37 55.32C57.14 55.32 56.1 55.05 55.23 54.51C53.8 53.65 53.05 52.13 52.95 49.99L68.79 49.99C68.81 48.13 68.75 46.71 68.6 45.73C68.37 44.13 67.77 42.61 66.86 41.29ZM54.6 42.96C55.4 42.15 56.53 41.73 57.99 41.73C59.33 41.73 60.45 42.12 61.37 42.89C62.28 43.66 62.78 44.79 62.88 46.28L53.08 46.28C53.29 44.89 53.79 43.78 54.6 42.96Z" stroke="#000000" stroke-opacity="1.000000" stroke-width="2.000000"/>
	</g>
</svg>
