<svg width="90.000000" height="90.000000" viewBox="0 0 90 90" fill="none" xmlns="http://www.w3.org/2000/svg" xmlns:xlink="http://www.w3.org/1999/xlink">
	<desc>
			Created with Pixso.
	</desc>
	<defs>
		<clipPath id="clip2_265">
			<rect id="IMAGE" width="90.000000" height="90.000000" fill="white" fill-opacity="0"/>
		</clipPath>
	</defs>
	<g clip-path="url(#clip2_265)">
		<path id="Vector" d="M37.93 39.24C39.83 38.86 41.7 38.37 43.54 37.78C41.22 33.47 38.26 29.55 34.75 26.15C29.65 28.89 25.79 33.77 24.54 39.59C28.28 40.35 32.91 40.25 37.93 39.24Z" fill="#FFFFFF" fill-opacity="1.000000" fill-rule="nonzero"/>
		<path id="Vector" d="M43.54 37.78C41.22 33.47 38.26 29.55 34.75 26.15C29.65 28.89 25.79 33.77 24.54 39.59C28.28 40.35 32.91 40.25 37.93 39.24C39.83 38.86 41.7 38.37 43.54 37.78Z" stroke="#000000" stroke-opacity="1.000000" stroke-width="2.000000"/>
		<path id="Vector" d="M57 28.42L56.67 29.71C56.16 31.79 51.77 34.76 46.02 36.9L45.76 37C43.45 32.63 40.51 28.63 37.04 25.12C39.31 24.2 41.75 23.71 44.2 23.69C48.56 23.72 52.78 25.16 56.25 27.8C56.51 27.99 56.77 28.19 57 28.42Z" fill="#FFFFFF" fill-opacity="1.000000" fill-rule="nonzero"/>
		<path id="Vector" d="M56.67 29.71C56.16 31.79 51.77 34.76 46.02 36.9L45.76 37C43.45 32.63 40.51 28.63 37.04 25.12C39.31 24.2 41.75 23.71 44.2 23.69C48.56 23.72 52.78 25.16 56.25 27.8C56.51 27.99 56.77 28.19 57 28.42L56.67 29.71Z" stroke="#000000" stroke-opacity="1.000000" stroke-width="2.000000"/>
		<path id="Vector" d="M46.68 44.78C46.07 43.1 45.38 41.48 44.63 39.9C42.59 40.58 40.51 41.13 38.4 41.55C35.58 42.12 32.7 42.42 29.82 42.44C27.92 42.45 26.03 42.29 24.16 41.95C24.11 42.56 24.16 43.18 24.16 43.81C24.16 46.75 24.81 49.66 26.06 52.33C27.31 55 29.14 57.35 31.4 59.23C31.42 59.09 31.45 58.95 31.47 58.81C32.37 53.38 38.64 47.65 46.68 44.78Z" fill="#FFFFFF" fill-opacity="1.000000" fill-rule="nonzero"/>
		<path id="Vector" d="M44.63 39.9C42.59 40.58 40.51 41.13 38.4 41.55C35.58 42.12 32.7 42.42 29.82 42.44C27.92 42.45 26.03 42.29 24.16 41.95C24.11 42.56 24.16 43.18 24.16 43.81C24.16 46.75 24.81 49.66 26.06 52.33C27.31 55 29.14 57.35 31.4 59.23C31.42 59.09 31.45 58.95 31.47 58.81C32.37 53.38 38.64 47.65 46.68 44.78C46.07 43.1 45.38 41.48 44.63 39.9Z" stroke="#000000" stroke-opacity="1.000000" stroke-width="2.000000"/>
		<path id="Vector" d="M47.46 46.99C49.09 52.2 49.96 57.6 50.05 63.06C47.35 63.89 44.51 64.13 41.71 63.76C38.91 63.4 36.22 62.44 33.83 60.95C33.72 60.36 33.71 59.76 33.81 59.18C34.54 54.73 40.38 49.57 47.46 46.99Z" fill="#FFFFFF" fill-opacity="1.000000" fill-rule="nonzero"/>
		<path id="Vector" d="M50.05 63.06C47.35 63.89 44.51 64.13 41.71 63.76C38.91 63.4 36.22 62.44 33.83 60.95C33.72 60.36 33.71 59.76 33.81 59.18C34.54 54.73 40.38 49.57 47.46 46.99C49.09 52.2 49.96 57.6 50.05 63.06Z" stroke="#000000" stroke-opacity="1.000000" stroke-width="2.000000"/>
		<path id="Vector" d="M64.11 46.66C63.12 53.57 58.54 59.35 52.36 62.1C52.19 56.73 51.29 51.41 49.67 46.28C54.95 44.82 59.96 45 64.11 46.66Z" fill="#FFFFFF" fill-opacity="1.000000" fill-rule="nonzero"/>
		<path id="Vector" d="M52.36 62.1C52.19 56.73 51.29 51.41 49.67 46.28C54.95 44.82 59.96 45 64.11 46.66C63.12 53.57 58.54 59.35 52.36 62.1Z" stroke="#000000" stroke-opacity="1.000000" stroke-width="2.000000"/>
		<path id="Vector" d="M64.32 43.81L64.32 44.24C59.82 42.56 54.47 42.49 48.92 44.07C48.31 42.37 47.6 40.73 46.84 39.12C50.71 37.66 57.95 34.32 58.96 30.28C62.38 33.96 64.3 38.79 64.32 43.81Z" fill="#FFFFFF" fill-opacity="1.000000" fill-rule="nonzero"/>
		<path id="Vector" d="M64.32 44.24C59.82 42.56 54.47 42.49 48.92 44.07C48.31 42.37 47.6 40.73 46.84 39.12C50.71 37.66 57.95 34.32 58.96 30.28C62.38 33.96 64.3 38.79 64.32 43.81L64.32 44.24Z" stroke="#000000" stroke-opacity="1.000000" stroke-width="2.000000"/>
	</g>
</svg>
